# xmcd
#
# Track frame offsets: 
#        150
#        25016
#        47672
#        59401
#        76761
#        89017
#        104426
#        122654
#
# Disc length: 1991 seconds
#
# Revision: 0
# Processed by: cddbd v1.5.2PL0 Copyright (c) Steve Scherf et al.
# Submitted via: ExactAudioCopy v1.3
#
DISCID=5f07c508
DTITLE=Barrelhouse - Every Night In The Week
DYEAR=1985
DGENRE=Blues Rock
TTITLE0=The Sudden Stop
TTITLE1=I Saw My Baby Cry
TTITLE2=Can't Explain
TTITLE3=I Thank You
TTITLE4=Every Night In The Week
TTITLE5=Brand New Lover
TTITLE6=Bye Bye Baby
TTITLE7=Guilty
EXTD=
EXTT0=
EXTT1=
EXTT2=
EXTT3=
EXTT4=
EXTT5=
EXTT6=
EXTT7=
PLAYORDER=
